<svg xmlns="http://www.w3.org/2000/svg" width="28" height="28" viewBox="0 0 19 20" fill="none">
  <path d="M9.14286 2.91711C7.73014 2.91711 6.34914 3.33604 5.1745 4.1209C3.99986 4.90577 3.08435 6.02133 2.54372 7.32652C2.00309 8.63171 1.86164 10.0679 2.13725 11.4535C2.41286 12.8391 3.09315 14.1118 4.0921 15.1107C5.09104 16.1097 6.36378 16.79 7.74936 17.0656C9.13494 17.3412 10.5711 17.1997 11.8763 16.6591C13.1815 16.1185 14.2971 15.203 15.0819 14.0283C15.8668 12.8537 16.2857 11.4727 16.2857 10.06C16.2836 8.16621 15.5304 6.3506 14.1913 5.01151C12.8522 3.67241 11.0366 2.91919 9.14286 2.91711ZM15.4029 12.06H12.1064C12.3455 10.7374 12.3455 9.38259 12.1064 8.05997H15.4029C15.8181 9.36098 15.8181 10.759 15.4029 12.06ZM9.14286 16.6314C9.10547 16.6314 9.06849 16.6236 9.0343 16.6084C9.00011 16.5933 8.96945 16.5712 8.94429 16.5435C7.96929 15.4935 7.26429 14.135 6.88643 12.6314H11.3993C11.0214 14.135 10.3164 15.4935 9.34143 16.5435C9.31627 16.5712 9.28562 16.5933 9.25142 16.6084C9.21723 16.6236 9.18025 16.6314 9.14286 16.6314ZM6.76072 12.06C6.50834 10.7386 6.50834 9.38136 6.76072 8.05997H11.525C11.7774 9.38136 11.7774 10.7386 11.525 12.06H6.76072ZM9.14286 3.48854C9.18025 3.48856 9.21723 3.49638 9.25142 3.51151C9.28562 3.52664 9.31627 3.54874 9.34143 3.5764C10.3164 4.6264 11.0214 5.98854 11.3993 7.48854H6.88643C7.26429 5.98854 7.96929 4.6264 8.94429 3.5764C8.96945 3.54874 9.00011 3.52664 9.0343 3.51151C9.06849 3.49638 9.10547 3.48856 9.14286 3.48854ZM15.19 7.48854H11.9864C11.6357 6.00783 10.9864 4.6514 10.0821 3.55569C11.199 3.71914 12.2552 4.16661 13.1495 4.85524C14.0439 5.54386 14.7465 6.45058 15.19 7.48854ZM8.20357 3.55569C7.30143 4.6514 6.65 6.00783 6.29929 7.48854H3.09572C3.53923 6.45058 4.24182 5.54386 5.13618 4.85524C6.03054 4.16661 7.08672 3.71914 8.20357 3.55569ZM2.88286 8.05997H6.17929C5.94024 9.38259 5.94024 10.7374 6.17929 12.06H2.88286C2.46763 10.759 2.46763 9.36098 2.88286 8.05997ZM3.09715 12.6314H6.29929C6.65 14.1121 7.29929 15.4685 8.20357 16.5643C7.08672 16.4008 6.03054 15.9533 5.13618 15.2647C4.24182 14.5761 3.53923 13.6694 3.09572 12.6314H3.09715ZM10.0836 16.5643C10.9857 15.4685 11.6371 14.1121 11.9879 12.6314H15.1914C14.7478 13.6696 14.045 14.5764 13.1504 15.265C12.2557 15.9537 11.1993 16.401 10.0821 16.5643H10.0836Z" fill="black"/>
</svg>