<svg width="85" height="29" viewBox="0 0 85 29" fill="none" xmlns="http://www.w3.org/2000/svg">
<g style="mix-blend-mode:multiply">
<rect y="0.0976562" width="85" height="28" rx="14" fill="#ECFDF3"/>
<path d="M13.2329 19.0977V8.91584H19.6164V10.2383H14.7691V13.3406H19.2833V14.658H14.7691V17.7752H19.676V19.0977H13.2329ZM22.7224 11.4613L24.4078 14.4343L26.108 11.4613H27.7338L25.3524 15.2795L27.7536 19.0977H26.1279L24.4078 16.244L22.6926 19.0977H21.0619L23.4383 15.2795L21.0917 11.4613H22.7224ZM32.1759 19.2518C31.4368 19.2518 30.8004 19.0844 30.2668 18.7496C29.7365 18.4116 29.3288 17.9459 29.0438 17.3526C28.7587 16.7594 28.6162 16.0799 28.6162 15.3143C28.6162 14.5387 28.762 13.8543 29.0537 13.261C29.3454 12.6644 29.7564 12.1987 30.2867 11.864C30.817 11.5292 31.4417 11.3619 32.161 11.3619C32.741 11.3619 33.258 11.4696 33.7121 11.685C34.1662 11.8971 34.5324 12.1954 34.8108 12.5799C35.0925 12.9644 35.2599 13.4135 35.3129 13.9272H33.8662C33.7867 13.5692 33.6044 13.261 33.3193 13.0025C33.0376 12.744 32.6598 12.6147 32.1858 12.6147C31.7715 12.6147 31.4086 12.7241 31.097 12.9428C30.7888 13.1583 30.5485 13.4665 30.3762 13.8675C30.2038 14.2653 30.1176 14.7359 30.1176 15.2795C30.1176 15.8363 30.2021 16.3169 30.3712 16.7212C30.5402 17.1256 30.7789 17.4388 31.0871 17.6609C31.3986 17.8829 31.7649 17.994 32.1858 17.994C32.4675 17.994 32.7227 17.9426 32.9514 17.8398C33.1834 17.7338 33.3773 17.583 33.5331 17.3874C33.6922 17.1919 33.8032 16.9566 33.8662 16.6815H35.3129C35.2599 17.1753 35.0992 17.6161 34.8307 18.0039C34.5622 18.3917 34.2026 18.6966 33.7519 18.9187C33.3044 19.1407 32.7791 19.2518 32.1759 19.2518ZM40.1938 19.2518C39.4414 19.2518 38.7935 19.091 38.2499 18.7695C37.7097 18.4447 37.2921 17.989 36.9971 17.4023C36.7054 16.8124 36.5596 16.1213 36.5596 15.3292C36.5596 14.547 36.7054 13.8576 36.9971 13.261C37.2921 12.6644 37.703 12.1987 38.23 11.864C38.7603 11.5292 39.3801 11.3619 40.0894 11.3619C40.5203 11.3619 40.9379 11.4331 41.3422 11.5756C41.7466 11.7182 42.1095 11.9419 42.431 12.2468C42.7525 12.5517 43.0061 12.9478 43.1917 13.435C43.3773 13.9189 43.4701 14.5072 43.4701 15.1999V15.7269H37.3998V14.6133H42.0134C42.0134 14.2222 41.9339 13.8758 41.7748 13.5742C41.6157 13.2693 41.392 13.029 41.1036 12.8533C40.8186 12.6777 40.4838 12.5898 40.0993 12.5898C39.6817 12.5898 39.3171 12.6926 39.0056 12.8981C38.6974 13.1003 38.4587 13.3654 38.2897 13.6935C38.124 14.0183 38.0411 14.3713 38.0411 14.7525V15.6225C38.0411 16.1329 38.1306 16.5671 38.3096 16.9251C38.4919 17.283 38.7454 17.5565 39.0702 17.7454C39.395 17.931 39.7745 18.0238 40.2087 18.0238C40.4904 18.0238 40.7473 17.984 40.9793 17.9045C41.2113 17.8216 41.4118 17.699 41.5809 17.5366C41.7499 17.3742 41.8792 17.1737 41.9687 16.935L43.3756 17.1886C43.2629 17.6029 43.0608 17.9658 42.7691 18.2773C42.4807 18.5856 42.1178 18.8259 41.6803 18.9982C41.2461 19.1673 40.7506 19.2518 40.1938 19.2518ZM46.6059 8.91584V19.0977H45.1194V8.91584H46.6059ZM50.0922 8.91584V19.0977H48.6057V8.91584H50.0922ZM55.3833 19.2518C54.6309 19.2518 53.9829 19.091 53.4394 18.7695C52.8991 18.4447 52.4815 17.989 52.1865 17.4023C51.8949 16.8124 51.749 16.1213 51.749 15.3292C51.749 14.547 51.8949 13.8576 52.1865 13.261C52.4815 12.6644 52.8925 12.1987 53.4195 11.864C53.9498 11.5292 54.5696 11.3619 55.2789 11.3619C55.7097 11.3619 56.1273 11.4331 56.5317 11.5756C56.9361 11.7182 57.299 11.9419 57.6205 12.2468C57.942 12.5517 58.1955 12.9478 58.3811 13.435C58.5667 13.9189 58.6595 14.5072 58.6595 15.1999V15.7269H52.5892V14.6133H57.2029C57.2029 14.2222 57.1233 13.8758 56.9642 13.5742C56.8051 13.2693 56.5814 13.029 56.2931 12.8533C56.008 12.6777 55.6733 12.5898 55.2888 12.5898C54.8712 12.5898 54.5066 12.6926 54.195 12.8981C53.8868 13.1003 53.6482 13.3654 53.4791 13.6935C53.3134 14.0183 53.2306 14.3713 53.2306 14.7525V15.6225C53.2306 16.1329 53.32 16.5671 53.499 16.9251C53.6813 17.283 53.9349 17.5565 54.2597 17.7454C54.5845 17.931 54.964 18.0238 55.3982 18.0238C55.6799 18.0238 55.9368 17.984 56.1688 17.9045C56.4008 17.8216 56.6013 17.699 56.7703 17.5366C56.9394 17.3742 57.0686 17.1737 57.1581 16.935L58.5651 17.1886C58.4524 17.6029 58.2502 17.9658 57.9585 18.2773C57.6702 18.5856 57.3073 18.8259 56.8698 18.9982C56.4356 19.1673 55.9401 19.2518 55.3833 19.2518ZM61.7954 14.5636V19.0977H60.3089V11.4613H61.7357V12.7042H61.8302C62.0058 12.2998 62.2809 11.975 62.6555 11.7298C63.0333 11.4845 63.5089 11.3619 64.0823 11.3619C64.6027 11.3619 65.0584 11.4712 65.4495 11.69C65.8406 11.9054 66.1439 12.2269 66.3593 12.6545C66.5747 13.082 66.6824 13.6107 66.6824 14.2404V19.0977H65.1959V14.4194C65.1959 13.8659 65.0518 13.4334 64.7634 13.1218C64.4751 12.8069 64.079 12.6495 63.5752 12.6495C63.2305 12.6495 62.9239 12.7241 62.6555 12.8732C62.3903 13.0224 62.1798 13.2411 62.0241 13.5295C61.8716 13.8145 61.7954 14.1592 61.7954 14.5636ZM72.2407 11.4613V12.6545H68.0695V11.4613H72.2407ZM69.1881 9.63175H70.6746V16.8555C70.6746 17.1438 70.7177 17.3609 70.8039 17.5067C70.8901 17.6493 71.0011 17.747 71.137 17.8001C71.2762 17.8498 71.427 17.8746 71.5894 17.8746C71.7087 17.8746 71.8131 17.8664 71.9026 17.8498C71.9921 17.8332 72.0617 17.82 72.1114 17.81L72.3799 19.038C72.2937 19.0711 72.1711 19.1043 72.012 19.1374C71.8529 19.1739 71.654 19.1938 71.4154 19.1971C71.0243 19.2037 70.6597 19.1341 70.3216 18.9883C69.9836 18.8424 69.7101 18.6171 69.5013 18.3121C69.2925 18.0072 69.1881 17.6244 69.1881 17.1637V9.63175Z" fill="#039855"/>
</g>
</svg>
