<svg width="61" height="29" viewBox="0 0 61 29" fill="none" xmlns="http://www.w3.org/2000/svg">
<g style="mix-blend-mode:multiply">
<rect y="0.0976562" width="61" height="28" rx="14" fill="#EFF8FF"/>
<path d="M20.018 12.1325C19.9219 11.8308 19.7926 11.5607 19.6302 11.3221C19.4711 11.0801 19.2806 10.8746 19.0585 10.7056C18.8364 10.5333 18.5829 10.4023 18.2979 10.3129C18.0161 10.2234 17.7062 10.1786 17.3682 10.1786C16.7948 10.1786 16.2777 10.3261 15.817 10.6211C15.3563 10.9161 14.9917 11.3486 14.7233 11.9187C14.4581 12.4854 14.3256 13.1798 14.3256 14.0018C14.3256 14.8271 14.4598 15.5247 14.7282 16.0948C14.9967 16.6649 15.3646 17.0974 15.8319 17.3924C16.2993 17.6874 16.8312 17.8349 17.4278 17.8349C17.9813 17.8349 18.4636 17.7222 18.8746 17.4968C19.2889 17.2714 19.6087 16.9532 19.8341 16.5423C20.0628 16.128 20.1771 15.6407 20.1771 15.0806L20.5748 15.1552H17.6615V13.8874H21.6636V15.0458C21.6636 15.9009 21.4813 16.6433 21.1167 17.2731C20.7555 17.8995 20.255 18.3834 19.6153 18.7248C18.979 19.0662 18.2498 19.2369 17.4278 19.2369C16.5064 19.2369 15.6977 19.0247 15.0017 18.6005C14.309 18.1763 13.7687 17.5747 13.3809 16.7958C12.9932 16.0136 12.7993 15.0856 12.7993 14.0117C12.7993 13.1997 12.912 12.4705 13.1373 11.8242C13.3627 11.1779 13.6792 10.6294 14.0869 10.1786C14.4979 9.72455 14.9801 9.3782 15.5336 9.13956C16.0905 8.89761 16.6987 8.77663 17.3582 8.77663C17.9084 8.77663 18.4205 8.85784 18.8944 9.02024C19.3717 9.18265 19.796 9.413 20.1672 9.71129C20.5417 10.0096 20.8516 10.3642 21.0969 10.7752C21.3421 11.1829 21.5078 11.6353 21.594 12.1325H20.018ZM23.4944 19.0977V11.4613H24.9312V12.6744H25.0107C25.1499 12.2634 25.3952 11.9402 25.7465 11.7049C26.1012 11.4663 26.5022 11.3469 26.9497 11.3469C27.0425 11.3469 27.1518 11.3503 27.2778 11.3569C27.407 11.3635 27.5081 11.3718 27.5811 11.3817V12.8036C27.5214 12.7871 27.4153 12.7688 27.2629 12.7489C27.1104 12.7257 26.9579 12.7141 26.8055 12.7141C26.4542 12.7141 26.141 12.7887 25.8659 12.9379C25.5941 13.0837 25.3786 13.2875 25.2195 13.5494C25.0605 13.8079 24.9809 14.1029 24.9809 14.4343V19.0977H23.4944ZM31.8852 19.2518C31.1328 19.2518 30.4849 19.091 29.9413 18.7695C29.4011 18.4447 28.9835 17.989 28.6885 17.4023C28.3968 16.8124 28.251 16.1213 28.251 15.3292C28.251 14.547 28.3968 13.8576 28.6885 13.261C28.9835 12.6644 29.3944 12.1987 29.9214 11.864C30.4517 11.5292 31.0715 11.3619 31.7808 11.3619C32.2117 11.3619 32.6293 11.4331 33.0336 11.5756C33.438 11.7182 33.8009 11.9419 34.1224 12.2468C34.4439 12.5517 34.6975 12.9478 34.8831 13.435C35.0687 13.9189 35.1615 14.5072 35.1615 15.1999V15.7269H29.0912V14.6133H33.7048C33.7048 14.2222 33.6253 13.8758 33.4662 13.5742C33.3071 13.2693 33.0834 13.029 32.795 12.8533C32.51 12.6777 32.1752 12.5898 31.7907 12.5898C31.3731 12.5898 31.0086 12.6926 30.697 12.8981C30.3888 13.1003 30.1501 13.3654 29.9811 13.6935C29.8154 14.0183 29.7325 14.3713 29.7325 14.7525V15.6225C29.7325 16.1329 29.822 16.5671 30.001 16.9251C30.1833 17.283 30.4368 17.5565 30.7616 17.7454C31.0864 17.931 31.4659 18.0238 31.9001 18.0238C32.1818 18.0238 32.4387 17.984 32.6707 17.9045C32.9027 17.8216 33.1032 17.699 33.2723 17.5366C33.4413 17.3742 33.5706 17.1737 33.6601 16.935L35.067 17.1886C34.9543 17.6029 34.7522 17.9658 34.4605 18.2773C34.1721 18.5856 33.8092 18.8259 33.3717 18.9982C32.9375 19.1673 32.442 19.2518 31.8852 19.2518ZM39.0331 19.2667C38.5492 19.2667 38.1117 19.1772 37.7206 18.9982C37.3295 18.8159 37.0196 18.5524 36.7909 18.2077C36.5655 17.863 36.4529 17.4405 36.4529 16.94C36.4529 16.5091 36.5357 16.1545 36.7014 15.8761C36.8672 15.5977 37.0909 15.3772 37.3726 15.2148C37.6543 15.0524 37.9692 14.9298 38.3172 14.8469C38.6652 14.7641 39.0199 14.7011 39.3811 14.658C39.8385 14.605 40.2097 14.5619 40.4948 14.5288C40.7798 14.4923 40.9869 14.4343 41.1162 14.3548C41.2455 14.2752 41.3101 14.146 41.3101 13.967V13.9322C41.3101 13.498 41.1875 13.1616 40.9422 12.9229C40.7003 12.6843 40.339 12.565 39.8584 12.565C39.3579 12.565 38.9635 12.676 38.6752 12.8981C38.3901 13.1168 38.1929 13.3604 38.0835 13.6289L36.6865 13.3107C36.8522 12.8467 37.0942 12.4722 37.4124 12.1871C37.7339 11.8988 38.1034 11.69 38.521 11.5607C38.9387 11.4281 39.3778 11.3619 39.8385 11.3619C40.1434 11.3619 40.4666 11.3983 40.808 11.4712C41.1527 11.5408 41.4742 11.6701 41.7725 11.859C42.0741 12.0479 42.321 12.3181 42.5132 12.6694C42.7055 13.0174 42.8016 13.4698 42.8016 14.0266V19.0977H41.3499V18.0536H41.2902C41.1941 18.2459 41.0499 18.4348 40.8577 18.6204C40.6655 18.806 40.4185 18.9601 40.1169 19.0827C39.8153 19.2054 39.454 19.2667 39.0331 19.2667ZM39.3563 18.0735C39.7673 18.0735 40.1186 17.9923 40.4102 17.8299C40.7052 17.6675 40.9289 17.4554 41.0814 17.1935C41.2372 16.9284 41.3151 16.645 41.3151 16.3434V15.359C41.262 15.412 41.1593 15.4618 41.0068 15.5082C40.8577 15.5513 40.687 15.5894 40.4948 15.6225C40.3025 15.6523 40.1153 15.6805 39.933 15.707C39.7507 15.7302 39.5982 15.7501 39.4756 15.7667C39.1872 15.8031 38.9237 15.8645 38.6851 15.9506C38.4498 16.0368 38.2609 16.1611 38.1183 16.3235C37.9791 16.4826 37.9095 16.6947 37.9095 16.9599C37.9095 17.3278 38.0454 17.6062 38.3172 17.7951C38.589 17.9807 38.9353 18.0735 39.3563 18.0735ZM48.3461 11.4613V12.6545H44.175V11.4613H48.3461ZM45.2936 9.63175H46.7801V16.8555C46.7801 17.1438 46.8232 17.3609 46.9094 17.5067C46.9955 17.6493 47.1066 17.747 47.2425 17.8001C47.3817 17.8498 47.5325 17.8746 47.6949 17.8746C47.8142 17.8746 47.9186 17.8664 48.0081 17.8498C48.0976 17.8332 48.1672 17.82 48.2169 17.81L48.4854 19.038C48.3992 19.0711 48.2765 19.1043 48.1175 19.1374C47.9584 19.1739 47.7595 19.1938 47.5209 19.1971C47.1298 19.2037 46.7652 19.1341 46.4271 18.9883C46.089 18.8424 45.8156 18.6171 45.6068 18.3121C45.398 18.0072 45.2936 17.6244 45.2936 17.1637V9.63175Z" fill="#2E90FA"/>
</g>
</svg>
