<svg width="79" height="29" viewBox="0 0 79 29" fill="none" xmlns="http://www.w3.org/2000/svg">
<g style="mix-blend-mode:multiply">
<rect x="0.5" y="0.0976562" width="78" height="28" rx="14" fill="#FFFAEB"/>
<path d="M13.7534 8.91584H15.6177L18.8592 16.8306H18.9785L22.22 8.91584H24.0843V19.0977H22.6227V11.7298H22.5282L19.5254 19.0827H18.3123L15.3095 11.7248H15.215V19.0977H13.7534V8.91584ZM29.4897 19.2518C28.7373 19.2518 28.0894 19.091 27.5458 18.7695C27.0056 18.4447 26.5879 17.989 26.293 17.4023C26.0013 16.8124 25.8555 16.1213 25.8555 15.3292C25.8555 14.547 26.0013 13.8576 26.293 13.261C26.5879 12.6644 26.9989 12.1987 27.5259 11.864C28.0562 11.5292 28.676 11.3619 29.3853 11.3619C29.8162 11.3619 30.2338 11.4331 30.6381 11.5756C31.0425 11.7182 31.4054 11.9419 31.7269 12.2468C32.0484 12.5517 32.302 12.9478 32.4876 13.435C32.6732 13.9189 32.766 14.5072 32.766 15.1999V15.7269H26.6957V14.6133H31.3093C31.3093 14.2222 31.2298 13.8758 31.0707 13.5742C30.9116 13.2693 30.6879 13.029 30.3995 12.8533C30.1145 12.6777 29.7797 12.5898 29.3952 12.5898C28.9776 12.5898 28.613 12.6926 28.3015 12.8981C27.9933 13.1003 27.7546 13.3654 27.5856 13.6935C27.4199 14.0183 27.337 14.3713 27.337 14.7525V15.6225C27.337 16.1329 27.4265 16.5671 27.6055 16.9251C27.7878 17.283 28.0413 17.5565 28.3661 17.7454C28.6909 17.931 29.0704 18.0238 29.5046 18.0238C29.7863 18.0238 30.0432 17.984 30.2752 17.9045C30.5072 17.8216 30.7077 17.699 30.8768 17.5366C31.0458 17.3742 31.1751 17.1737 31.2646 16.935L32.6715 17.1886C32.5588 17.6029 32.3567 17.9658 32.065 18.2773C31.7766 18.5856 31.4137 18.8259 30.9762 18.9982C30.542 19.1673 30.0465 19.2518 29.4897 19.2518ZM37.274 19.2468C36.6575 19.2468 36.1073 19.0894 35.6234 18.7745C35.1428 18.4563 34.765 18.0039 34.4899 17.4173C34.2181 16.8273 34.0822 16.1197 34.0822 15.2944C34.0822 14.4691 34.2198 13.7631 34.4949 13.1765C34.7733 12.5898 35.1544 12.1407 35.6383 11.8292C36.1222 11.5176 36.6708 11.3619 37.2839 11.3619C37.7579 11.3619 38.139 11.4414 38.4274 11.6005C38.719 11.7563 38.9444 11.9386 39.1035 12.1474C39.2659 12.3562 39.3919 12.5401 39.4814 12.6992H39.5708V8.91584H41.0574V19.0977H39.6056V17.9094H39.4814C39.3919 18.0719 39.2626 18.2575 39.0936 18.4663C38.9279 18.6751 38.6992 18.8574 38.4075 19.0131C38.1158 19.1689 37.738 19.2468 37.274 19.2468ZM37.6021 17.979C38.0297 17.979 38.3909 17.8664 38.6859 17.641C38.9842 17.4123 39.2096 17.0958 39.362 16.6914C39.5178 16.2871 39.5957 15.8164 39.5957 15.2795C39.5957 14.7492 39.5195 14.2852 39.367 13.8874C39.2145 13.4897 38.9908 13.1798 38.6958 12.9577C38.4009 12.7357 38.0363 12.6246 37.6021 12.6246C37.1547 12.6246 36.7818 12.7406 36.4835 12.9727C36.1852 13.2047 35.9598 13.5212 35.8074 13.9222C35.6582 14.3233 35.5836 14.7757 35.5836 15.2795C35.5836 15.7899 35.6599 16.2489 35.8123 16.6566C35.9648 17.0643 36.1902 17.3874 36.4885 17.6261C36.7901 17.8614 37.1613 17.979 37.6021 17.979ZM43.179 19.0977V11.4613H44.6655V19.0977H43.179ZM43.9297 10.283C43.6712 10.283 43.4491 10.1969 43.2635 10.0245C43.0812 9.84884 42.9901 9.64003 42.9901 9.39808C42.9901 9.15282 43.0812 8.94401 43.2635 8.77166C43.4491 8.596 43.6712 8.50817 43.9297 8.50817C44.1882 8.50817 44.4086 8.596 44.5909 8.77166C44.7765 8.94401 44.8693 9.15282 44.8693 9.39808C44.8693 9.64003 44.7765 9.84884 44.5909 10.0245C44.4086 10.1969 44.1882 10.283 43.9297 10.283ZM51.5027 15.9308V11.4613H52.9941V19.0977H51.5325V17.7752H51.4529C51.2773 18.1829 50.9956 18.5226 50.6078 18.7944C50.2233 19.0629 49.7444 19.1971 49.171 19.1971C48.6805 19.1971 48.2463 19.0894 47.8684 18.8739C47.4939 18.6552 47.1989 18.332 46.9835 17.9045C46.7714 17.4769 46.6653 16.9483 46.6653 16.3185V11.4613H48.1518V16.1396C48.1518 16.6599 48.296 17.0742 48.5843 17.3825C48.8727 17.6907 49.2472 17.8448 49.7079 17.8448C49.9863 17.8448 50.2631 17.7752 50.5382 17.636C50.8166 17.4968 51.0469 17.2863 51.2292 17.0046C51.4148 16.7229 51.506 16.3649 51.5027 15.9308ZM54.9915 19.0977V11.4613H56.4183V12.7042H56.5128C56.6719 12.2833 56.9321 11.9551 57.2933 11.7198C57.6546 11.4812 58.0871 11.3619 58.5909 11.3619C59.1013 11.3619 59.5289 11.4812 59.8736 11.7198C60.2216 11.9585 60.4785 12.2866 60.6442 12.7042H60.7237C60.906 12.2965 61.196 11.9717 61.5938 11.7298C61.9915 11.4845 62.4654 11.3619 63.0156 11.3619C63.7083 11.3619 64.2734 11.579 64.7109 12.0131C65.1518 12.4473 65.3722 13.1019 65.3722 13.9769V19.0977H63.8857V14.1161C63.8857 13.5991 63.7448 13.2246 63.4631 12.9925C63.1813 12.7605 62.8449 12.6445 62.4538 12.6445C61.9699 12.6445 61.5938 12.7937 61.3253 13.092C61.0568 13.387 60.9226 13.7665 60.9226 14.2305V19.0977H59.4411V14.0217C59.4411 13.6074 59.3118 13.2743 59.0533 13.0224C58.7947 12.7705 58.4583 12.6445 58.044 12.6445C57.7623 12.6445 57.5021 12.7191 57.2635 12.8683C57.0282 13.0141 56.8376 13.2179 56.6918 13.4798C56.5492 13.7416 56.478 14.0449 56.478 14.3896V19.0977H54.9915Z" fill="#F79009"/>
</g>
</svg>
