<svg width="57" height="29" viewBox="0 0 57 29" fill="none" xmlns="http://www.w3.org/2000/svg">
<g style="mix-blend-mode:multiply">
<rect x="0.5" y="0.0976562" width="56" height="28" rx="14" fill="#FEF3F2"/>
<path d="M14.0669 19.0977V8.91584H17.6961C18.4883 8.91584 19.1445 9.06001 19.6649 9.34837C20.1852 9.63672 20.5747 10.0311 20.8332 10.5316C21.0917 11.0288 21.221 11.5889 21.221 12.212C21.221 12.8384 21.0901 13.4019 20.8282 13.9023C20.5697 14.3995 20.1786 14.7939 19.6549 15.0856C19.1346 15.3739 18.48 15.5181 17.6911 15.5181H15.1954V14.2156H17.5519C18.0524 14.2156 18.4584 14.1294 18.77 13.957C19.0815 13.7814 19.3102 13.5427 19.4561 13.2411C19.6019 12.9395 19.6748 12.5965 19.6748 12.212C19.6748 11.8275 19.6019 11.4862 19.4561 11.1879C19.3102 10.8896 19.0799 10.6559 18.765 10.4869C18.4535 10.3178 18.0425 10.2333 17.532 10.2333H15.6031V19.0977H14.0669ZM26.0235 19.2518C25.3076 19.2518 24.6829 19.0877 24.1492 18.7596C23.6156 18.4315 23.2013 17.9724 22.9063 17.3825C22.6114 16.7925 22.4639 16.1031 22.4639 15.3143C22.4639 14.5221 22.6114 13.8294 22.9063 13.2362C23.2013 12.6429 23.6156 12.1822 24.1492 11.854C24.6829 11.5259 25.3076 11.3619 26.0235 11.3619C26.7394 11.3619 27.3642 11.5259 27.8978 11.854C28.4314 12.1822 28.8457 12.6429 29.1407 13.2362C29.4357 13.8294 29.5832 14.5221 29.5832 15.3143C29.5832 16.1031 29.4357 16.7925 29.1407 17.3825C28.8457 17.9724 28.4314 18.4315 27.8978 18.7596C27.3642 19.0877 26.7394 19.2518 26.0235 19.2518ZM26.0285 18.0039C26.4925 18.0039 26.877 17.8813 27.1819 17.636C27.4868 17.3907 27.7122 17.0643 27.858 16.6566C28.0072 16.2489 28.0818 15.7998 28.0818 15.3093C28.0818 14.8221 28.0072 14.3746 27.858 13.967C27.7122 13.556 27.4868 13.2262 27.1819 12.9776C26.877 12.729 26.4925 12.6048 26.0285 12.6048C25.5612 12.6048 25.1734 12.729 24.8651 12.9776C24.5602 13.2262 24.3332 13.556 24.184 13.967C24.0382 14.3746 23.9653 14.8221 23.9653 15.3093C23.9653 15.7998 24.0382 16.2489 24.184 16.6566C24.3332 17.0643 24.5602 17.3907 24.8651 17.636C25.1734 17.8813 25.5612 18.0039 26.0285 18.0039ZM34.4591 19.2518C33.7432 19.2518 33.1184 19.0877 32.5848 18.7596C32.0512 18.4315 31.6369 17.9724 31.3419 17.3825C31.0469 16.7925 30.8994 16.1031 30.8994 15.3143C30.8994 14.5221 31.0469 13.8294 31.3419 13.2362C31.6369 12.6429 32.0512 12.1822 32.5848 11.854C33.1184 11.5259 33.7432 11.3619 34.4591 11.3619C35.175 11.3619 35.7997 11.5259 36.3334 11.854C36.867 12.1822 37.2813 12.6429 37.5763 13.2362C37.8712 13.8294 38.0187 14.5221 38.0187 15.3143C38.0187 16.1031 37.8712 16.7925 37.5763 17.3825C37.2813 17.9724 36.867 18.4315 36.3334 18.7596C35.7997 19.0877 35.175 19.2518 34.4591 19.2518ZM34.464 18.0039C34.9281 18.0039 35.3125 17.8813 35.6175 17.636C35.9224 17.3907 36.1478 17.0643 36.2936 16.6566C36.4427 16.2489 36.5173 15.7998 36.5173 15.3093C36.5173 14.8221 36.4427 14.3746 36.2936 13.967C36.1478 13.556 35.9224 13.2262 35.6175 12.9776C35.3125 12.729 34.9281 12.6048 34.464 12.6048C33.9967 12.6048 33.6089 12.729 33.3007 12.9776C32.9958 13.2262 32.7687 13.556 32.6196 13.967C32.4738 14.3746 32.4008 14.8221 32.4008 15.3093C32.4008 15.7998 32.4738 16.2489 32.6196 16.6566C32.7687 17.0643 32.9958 17.3907 33.3007 17.636C33.6089 17.8813 33.9967 18.0039 34.464 18.0039ZM39.678 19.0977V11.4613H41.1148V12.6744H41.1943C41.3335 12.2634 41.5788 11.9402 41.9301 11.7049C42.2848 11.4663 42.6858 11.3469 43.1333 11.3469C43.2261 11.3469 43.3354 11.3503 43.4614 11.3569C43.5906 11.3635 43.6917 11.3718 43.7646 11.3817V12.8036C43.705 12.7871 43.5989 12.7688 43.4465 12.7489C43.294 12.7257 43.1415 12.7141 42.9891 12.7141C42.6378 12.7141 42.3245 12.7887 42.0494 12.9379C41.7777 13.0837 41.5622 13.2875 41.4031 13.5494C41.2441 13.8079 41.1645 14.1029 41.1645 14.4343V19.0977H39.678Z" fill="#F04438"/>
</g>
</svg>
