<svg width="107" height="107" viewBox="0 0 107 107" fill="none" xmlns="http://www.w3.org/2000/svg">
<rect x="8.5" y="8.09766" width="90" height="90" rx="45" fill="#D1FADF"/>
<rect x="8.5" y="8.09766" width="90" height="90" rx="45" stroke="#ECFDF3" stroke-width="16.0714"/>
<g clip-path="url(#clip0_14_3795)">
<path d="M40.8945 40.4863V50.1712C40.8945 57.1498 46.4764 62.9342 53.4548 62.986C55.1249 62.9986 56.7809 62.6806 58.3275 62.0503C59.8741 61.4199 61.2807 60.4897 62.4661 59.3133C63.6515 58.1368 64.5924 56.7373 65.2344 55.1956C65.8765 53.6538 66.207 52.0002 66.207 50.3301V40.4863C66.207 40.1134 66.0589 39.7557 65.7952 39.492C65.5314 39.2282 65.1737 39.0801 64.8008 39.0801H42.3008C41.9278 39.0801 41.5701 39.2282 41.3064 39.492C41.0427 39.7557 40.8945 40.1134 40.8945 40.4863Z" stroke="#039855" stroke-width="2.8125" stroke-linecap="round" stroke-linejoin="round"/>
<path d="M47.9258 70.0195H59.1758" stroke="#039855" stroke-width="2.8125" stroke-linecap="round" stroke-linejoin="round"/>
<path d="M53.543 62.9861V70.0173" stroke="#039855" stroke-width="2.8125" stroke-linecap="round" stroke-linejoin="round"/>
<path d="M65.8923 53.1406H67.6122C69.104 53.1406 70.5348 52.548 71.5897 51.4931C72.6446 50.4382 73.2372 49.0075 73.2372 47.5156V44.7031C73.2372 44.3302 73.089 43.9725 72.8253 43.7088C72.5616 43.445 72.2039 43.2969 71.8309 43.2969H66.2059M41.2387 53.1406H39.4648C37.973 53.1406 36.5423 52.548 35.4874 51.4931C34.4325 50.4382 33.8398 49.0075 33.8398 47.5156V44.7031C33.8398 44.3302 33.988 43.9725 34.2517 43.7088C34.5154 43.445 34.8731 43.2969 35.2461 43.2969H40.8711" stroke="#039855" stroke-width="2.8125" stroke-linecap="round" stroke-linejoin="round"/>
<path d="M53.7425 44.6602C53.8159 44.5116 54.0278 44.5116 54.1012 44.6602L55.4204 47.3327C55.4495 47.3917 55.5057 47.4326 55.5708 47.4421L58.5211 47.8733C58.6851 47.8973 58.7505 48.0988 58.6317 48.2145L56.4972 50.2935C56.4501 50.3394 56.4285 50.4057 56.4397 50.4706L56.9434 53.4074C56.9714 53.5708 56.7999 53.6954 56.6531 53.6182L54.015 52.2308C53.9567 52.2002 53.8871 52.2002 53.8288 52.2308L51.1906 53.6182C51.0439 53.6954 50.8724 53.5708 50.9004 53.4074L51.4041 50.4706C51.4152 50.4057 51.3937 50.3394 51.3465 50.2935L49.212 48.2145C49.0933 48.0988 49.1586 47.8973 49.3226 47.8733L52.2729 47.4421C52.338 47.4326 52.3943 47.3917 52.4234 47.3327L53.7425 44.6602Z" fill="#039855"/>
</g>
<defs>
<clipPath id="clip0_14_3795">
<rect width="45" height="45" fill="white" transform="translate(31.0469 30.6406)"/>
</clipPath>
</defs>
</svg>
