<svg width="107" height="107" viewBox="0 0 107 107" fill="none" xmlns="http://www.w3.org/2000/svg">
<rect x="8.49805" y="8.09766" width="90.0039" height="90.0039" rx="45.002" fill="#D1E9FF"/>
<rect x="8.49805" y="8.09766" width="90.0039" height="90.0039" rx="45.002" stroke="#EFF8FF" stroke-width="16.0721"/>
<path d="M72.2507 51.3745V53.0996C72.2483 57.1431 70.939 61.0775 68.518 64.316C66.0969 67.5546 62.6939 69.9238 58.8164 71.0702C54.9388 72.2167 50.7946 72.079 47.0017 70.6777C43.2088 69.2765 39.9705 66.6867 37.7697 63.2946C35.5689 59.9025 34.5236 55.8899 34.7897 51.8552C35.0557 47.8205 36.6189 43.9798 39.246 40.9061C41.8731 37.8324 45.4235 35.6902 49.3675 34.7991C53.3116 33.908 57.438 34.3157 61.1314 35.9614M72.2507 38.099L53.4998 56.8685L47.8746 51.2433" stroke="#2E90FA" stroke-width="3.75016" stroke-linecap="round" stroke-linejoin="round"/>
</svg>
