<svg width="107" height="107" viewBox="0 0 107 107" fill="none" xmlns="http://www.w3.org/2000/svg">
<rect x="8.5" y="8.09766" width="90" height="90" rx="45" fill="#FEF0C7"/>
<rect x="8.5" y="8.09766" width="90" height="90" rx="45" stroke="#FFFAEB" stroke-width="16.0728"/>
<path d="M53.5034 45.6009V53.1015M53.5034 60.6022H53.5221M50.2968 35.9625L34.4142 62.4773C34.0867 63.0444 33.9135 63.6874 33.9116 64.3422C33.9098 64.9971 34.0795 65.641 34.4037 66.2099C34.728 66.7788 35.1956 67.2529 35.76 67.585C36.3244 67.9171 36.9659 68.0956 37.6207 68.1028H69.386C70.0408 68.0956 70.6823 67.9171 71.2467 67.585C71.8111 67.2529 72.2787 66.7788 72.603 66.2099C72.9272 65.641 73.0969 64.9971 73.0951 64.3422C73.0932 63.6874 72.92 63.0444 72.5925 62.4773L56.7099 35.9625C56.3756 35.4114 55.9049 34.9558 55.3433 34.6396C54.7816 34.3234 54.1479 34.1572 53.5034 34.1572C52.8588 34.1572 52.2251 34.3234 51.6635 34.6396C51.1018 34.9558 50.6311 35.4114 50.2968 35.9625Z" stroke="#F79009" stroke-width="3.75033" stroke-linecap="round" stroke-linejoin="round"/>
</svg>
