<svg xmlns="http://www.w3.org/2000/svg" width="36" height="37" viewBox="0 0 36 37" fill="none">
  <rect x="0.375" y="0.472656" width="35.25" height="35.25" rx="17.625" fill="#FBF1CE"/>
  <rect x="0.375" y="0.472656" width="35.25" height="35.25" rx="17.625" stroke="#F4C315" stroke-width="0.75"/>
  <path d="M14.3028 18.7545L18.6699 12.2421C18.8998 11.8847 19.6404 12.2421 19.4616 12.7529L18.0533 16.638C18.0178 16.7358 18.0903 16.8391 18.1943 16.8391H20.6364C21.2494 16.8391 21.3515 17.2224 21.0961 17.6819L17.1121 23.9389C16.8821 24.3221 16.1415 23.9389 16.2437 23.5558L17.1944 19.485C17.2171 19.3878 17.1403 19.296 17.0406 19.3011L14.7623 19.4187C14.4304 19.4442 14.1239 19.0866 14.3028 18.7545Z" fill="#F4C316" stroke="#F4C316" stroke-width="0.9"/>
</svg>