<svg xmlns="http://www.w3.org/2000/svg" width="36" height="37" viewBox="0 0 36 37" fill="none">
  <rect x="0.375" y="0.472656" width="35.25" height="35.25" rx="17.625" fill="#F4F5FB"/>
  <rect x="0.375" y="0.472656" width="35.25" height="35.25" rx="17.625" stroke="#3B82F6" stroke-width="0.75"/>
  <path d="M12.4488 18.9187L17.9077 10.7782C18.195 10.3314 19.1208 10.7782 18.8974 11.4167L17.1187 16.3233C17.0832 16.4211 17.1557 16.5245 17.2597 16.5245H20.3659C21.132 16.5245 21.2597 17.0035 20.9405 17.5779L15.9604 25.3992C15.6729 25.8782 14.7472 25.3992 14.875 24.9204L16.0747 19.7833C16.0974 19.6861 16.0206 19.5943 15.9209 19.5994L13.0231 19.7489C12.6083 19.7808 12.2252 19.3339 12.4488 18.9187Z" fill="#3B82F6" stroke="#BCD5FF" stroke-width="0.9"/>
  <path d="M15.4488 18.9187L20.9077 10.7782C21.195 10.3314 22.1208 10.7782 21.8974 11.4167L20.1187 16.3233C20.0832 16.4211 20.1557 16.5245 20.2597 16.5245H23.3659C24.132 16.5245 24.2597 17.0035 23.9405 17.5779L18.9604 25.3992C18.6729 25.8782 17.7472 25.3992 17.875 24.9204L19.0747 19.7833C19.0974 19.6861 19.0206 19.5943 18.9209 19.5994L16.0231 19.7489C15.6083 19.7808 15.2252 19.3339 15.4488 18.9187Z" fill="#3B82F6" stroke="#BCD5FF" stroke-width="0.9"/>
</svg>