<svg width="10" height="11" viewBox="0 0 10 11" fill="none" xmlns="http://www.w3.org/2000/svg">
<path d="M3.57653 2.39048C4.21002 1.25451 4.52651 0.686523 5 0.686523C5.47349 0.686523 5.78998 1.25451 6.42347 2.39048L6.58746 2.68448C6.76746 3.00747 6.85746 3.16896 6.99745 3.27546C7.13745 3.38196 7.31245 3.42146 7.66244 3.50046L7.98043 3.57246C9.2104 3.85095 9.82489 3.98995 9.97138 4.46043C10.1174 4.93042 9.69839 5.42091 8.85991 6.40139L8.64291 6.65488C8.40492 6.93338 8.28542 7.07287 8.23192 7.24487C8.17842 7.41736 8.19642 7.60336 8.23242 7.97485L8.26542 8.31334C8.39192 9.62181 8.45542 10.2758 8.07243 10.5663C7.68944 10.8573 7.11345 10.5918 5.96248 10.0618L5.66398 9.92481C5.33699 9.77381 5.1735 9.69881 5 9.69881C4.8265 9.69881 4.66301 9.77381 4.33552 9.92481L4.03802 10.0618C2.88655 10.5918 2.31056 10.8568 1.92807 10.5668C1.54458 10.2758 1.60808 9.62181 1.73458 8.31334L1.76758 7.97535C1.80358 7.60336 1.82157 7.41737 1.76758 7.24537C1.71458 7.07287 1.59508 6.93338 1.35709 6.65538L1.14009 6.40139C0.301611 5.42141 -0.11738 4.93092 0.0286168 4.46043C0.175113 3.98995 0.790099 3.85045 2.02007 3.57246L2.33806 3.50046C2.68755 3.42146 2.86205 3.38196 3.00255 3.27546C3.14254 3.16896 3.23254 3.00747 3.41254 2.68448L3.57653 2.39048Z" fill="#181818"/>
</svg>
