<svg width="17" height="16" viewBox="0 0 17 16" fill="none" xmlns="http://www.w3.org/2000/svg">
<g clip-path="url(#clip0_14_3930)">
<path d="M14.8635 7.1047V7.69015C14.8627 9.06242 14.4184 10.3977 13.5967 11.4968C12.7751 12.5959 11.6201 13.3999 10.3042 13.789C8.98823 14.1781 7.58176 14.1314 6.29453 13.6558C5.0073 13.1802 3.90828 12.3013 3.16139 11.1501C2.41449 9.9989 2.05973 8.6371 2.15002 7.26781C2.24032 5.89851 2.77082 4.59509 3.66241 3.55193C4.554 2.50877 5.75891 1.78176 7.09744 1.47934C8.43597 1.17692 9.8364 1.31528 11.0899 1.87379" stroke="#48BF84" stroke-width="1.27273" stroke-linecap="round" stroke-linejoin="round"/>
<path d="M14.8628 2.59705L8.49918 8.96705L6.59009 7.05796" stroke="#48BF84" stroke-width="1.27273" stroke-linecap="round" stroke-linejoin="round"/>
</g>
<defs>
<clipPath id="clip0_14_3930">
<rect width="15.2727" height="15.2727" fill="white" transform="translate(0.863525 0.0501709)"/>
</clipPath>
</defs>
</svg>
