<svg xmlns="http://www.w3.org/2000/svg" width="16" height="17" viewBox="0 0 16 17" fill="none">
  <mask id="mask0_294_3" style="mask-type:alpha" maskUnits="userSpaceOnUse" x="0" y="0" width="16" height="17">
    <rect y="0.0976562" width="16" height="16" fill="#D9D9D9"/>
  </mask>
  <g mask="url(#mask0_294_3)">
    <path d="M12.8667 6.04764L10.0333 3.24764L10.9667 2.3143C11.2222 2.05875 11.5361 1.93097 11.9083 1.93097C12.2806 1.93097 12.5944 2.05875 12.85 2.3143L13.7833 3.24764C14.0389 3.50319 14.1722 3.81152 14.1833 4.17264C14.1944 4.53375 14.0722 4.84208 13.8167 5.09764L12.8667 6.04764ZM2.66667 14.0976C2.47778 14.0976 2.31944 14.0337 2.19167 13.906C2.06389 13.7782 2 13.6199 2 13.431V11.5476C2 11.4587 2.01667 11.3726 2.05 11.2893C2.08333 11.206 2.13333 11.131 2.2 11.0643L9.06667 4.19764L11.9 7.03097L5.03333 13.8976C4.96667 13.9643 4.89167 14.0143 4.80833 14.0476C4.725 14.081 4.63889 14.0976 4.55 14.0976H2.66667Z" fill="#1C1B1F"/>
  </g>
</svg>