<svg xmlns="http://www.w3.org/2000/svg" width="38" height="39" viewBox="0 0 38 39" fill="none">
  <path d="M18.1007 5.07835C18.4675 4.33518 19.5273 4.33518 19.8941 5.07835L23.6574 12.7025C23.803 12.9973 24.0842 13.2018 24.4095 13.2493L32.8269 14.4797C33.6469 14.5995 33.9736 15.6074 33.38 16.1855L27.2908 22.1164C27.055 22.3461 26.9473 22.6773 27.003 23.0018L28.4398 31.3794C28.5799 32.1963 27.7224 32.8193 26.9888 32.4335L19.4628 28.4757C19.1715 28.3224 18.8233 28.3224 18.5319 28.4757L11.006 32.4335C10.2724 32.8193 9.41485 32.1963 9.55497 31.3793L10.9918 23.0018C11.0475 22.6773 10.9398 22.3461 10.7039 22.1164L4.61474 16.1855C4.02115 15.6074 4.34793 14.5995 5.16785 14.4797L13.5853 13.2493C13.9106 13.2018 14.1918 12.9973 14.3373 12.7025L18.1007 5.07835Z" fill="#F2D422"/>
</svg>