<svg width="48" height="49" viewBox="0 0 48 49" fill="none" xmlns="http://www.w3.org/2000/svg">
<path d="M21.9062 25.5016L19.0063 22.6516C18.6396 22.285 18.1809 22.1016 17.6303 22.1016C17.0796 22.1016 16.6049 22.3016 16.2063 22.7016C15.8396 23.0683 15.6562 23.535 15.6562 24.1016C15.6562 24.6683 15.8396 25.135 16.2063 25.5016L20.5063 29.8016C20.9062 30.2016 21.3729 30.4016 21.9062 30.4016C22.4396 30.4016 22.9062 30.2016 23.3062 29.8016L31.8062 21.3016C32.2062 20.9016 32.3976 20.435 32.3803 19.9016C32.3629 19.3683 32.1716 18.9016 31.8062 18.5016C31.4062 18.1016 30.9309 17.8936 30.3803 17.8776C29.8296 17.8616 29.3549 18.053 28.9563 18.4516L21.9062 25.5016ZM16.3062 43.6016L13.4062 38.7016L7.90625 37.5016C7.40625 37.4016 7.00625 37.143 6.70625 36.7256C6.40625 36.3083 6.28958 35.8503 6.35625 35.3516L6.90625 29.7016L3.15625 25.4016C2.82292 25.035 2.65625 24.6016 2.65625 24.1016C2.65625 23.6016 2.82292 23.1683 3.15625 22.8016L6.90625 18.5016L6.35625 12.8516C6.28958 12.3516 6.40625 11.893 6.70625 11.4756C7.00625 11.0583 7.40625 10.8003 7.90625 10.7016L13.4062 9.50164L16.3062 4.60164C16.5729 4.16831 16.9396 3.87631 17.4062 3.72564C17.8729 3.57497 18.3396 3.60031 18.8062 3.80164L24.0063 6.00164L29.2063 3.80164C29.6729 3.60164 30.1396 3.57631 30.6063 3.72564C31.0729 3.87497 31.4396 4.16697 31.7063 4.60164L34.6062 9.50164L40.1062 10.7016C40.6062 10.8016 41.0062 11.0603 41.3062 11.4776C41.6062 11.895 41.7229 12.353 41.6562 12.8516L41.1062 18.5016L44.8562 22.8016C45.1896 23.1683 45.3562 23.6016 45.3562 24.1016C45.3562 24.6016 45.1896 25.035 44.8562 25.4016L41.1062 29.7016L41.6562 35.3516C41.7229 35.8516 41.6062 36.3103 41.3062 36.7276C41.0062 37.145 40.6062 37.403 40.1062 37.5016L34.6062 38.7016L31.7063 43.6016C31.4396 44.035 31.0729 44.327 30.6063 44.4776C30.1396 44.6283 29.6729 44.603 29.2063 44.4016L24.0063 42.2016L18.8062 44.4016C18.3396 44.6016 17.8729 44.627 17.4062 44.4776C16.9396 44.3283 16.5729 44.0363 16.3062 43.6016Z" fill="#48BF84"/>
</svg>
